HIERARCHY
ROOT root
{
	OFFSET	0	13.1	24.9
	CHANNELS 6  Xposition Yposition Zposition Xrotation Yrotation Zrotation
	JOINT spine_1
	{
		OFFSET	0	9.99999	0
		CHANNELS 3  Xrotation Yrotation Zrotation
		JOINT spine_2
		{
			OFFSET	0	112	-10
			CHANNELS 3  Xrotation Yrotation Zrotation
			JOINT spine_3
			{
				OFFSET	0	206.5	19.3
				CHANNELS 3  Xrotation Yrotation Zrotation
				JOINT spine_4
				{
					OFFSET	0	110.4	14.6
					CHANNELS 3  Xrotation Yrotation Zrotation
					JOINT neck_1
					{
						OFFSET	0	71.8	-50.3
						CHANNELS 3  Xrotation Yrotation Zrotation
						JOINT neck_2
						{
							OFFSET	0	86.2	-25.8
							CHANNELS 3  Xrotation Yrotation Zrotation
							JOINT head_ee
							{
								OFFSET	0	179.8	-8.7
								CHANNELS 3  Xrotation Yrotation Zrotation
								End Site
								{
									OFFSET	1	0	0
								}
							}
						}
					}
					JOINT left_clavicle
					{
						OFFSET	-43.2	22.4	-70.8
						CHANNELS 3  Xrotation Yrotation Zrotation
						JOINT left_shoulder
						{
							OFFSET	-93.9	-5.79999	48.7
							CHANNELS 3  Xrotation Yrotation Zrotation
							JOINT left_elbow
							{
								OFFSET	-291.4	-30.8	15.2
								CHANNELS 3  Xrotation Yrotation Zrotation
								JOINT left_lowarm_twist
								{
									OFFSET	-110.7	-3.89999	13.6
									CHANNELS 3  Xrotation Yrotation Zrotation
									JOINT left_hand
									{
										OFFSET	-110.7	-3.89999	13.6
										CHANNELS 3  Xrotation Yrotation Zrotation
										JOINT left_ee
										{
											OFFSET	-80.8	-5.10001	12.1
											CHANNELS 3  Xrotation Yrotation Zrotation
											End Site
											{
												OFFSET	1	0	0
											}
										}
									}
								}
							}
						}
					}
					JOINT right_clavicle
					{
						OFFSET	43.2	22.4	-70.8
						CHANNELS 3  Xrotation Yrotation Zrotation
						JOINT right_shoulder
						{
							OFFSET	93.9	-5.79999	48.7
							CHANNELS 3  Xrotation Yrotation Zrotation
							JOINT right_elbow
							{
								OFFSET	291.4	-30.8	15.2
								CHANNELS 3  Xrotation Yrotation Zrotation
								JOINT right_lowarm_twist
								{
									OFFSET	110.7	-3.89999	13.6
									CHANNELS 3  Xrotation Yrotation Zrotation
									JOINT right_hand
									{
										OFFSET	110.7	-3.89999	13.6
										CHANNELS 3  Xrotation Yrotation Zrotation
										JOINT right_ee
										{
											OFFSET	80.8	-5.10001	12.1
											CHANNELS 3  Xrotation Yrotation Zrotation
											End Site
											{
												OFFSET	1	0	0
											}
										}
									}
								}
							}
						}
					}
				}
			}
		}
	}
	JOINT left_hip
	{
		OFFSET	-82.8	-127.5	0.300001
		CHANNELS 3  Xrotation Yrotation Zrotation
		JOINT left_knee
		{
			OFFSET	-28.2	-396.7	2.2
			CHANNELS 3  Xrotation Yrotation Zrotation
			JOINT left_ankle
			{
				OFFSET	-11.7	-411.3	35.4
				CHANNELS 3  Xrotation Yrotation Zrotation
				JOINT left_toes
				{
					OFFSET	0	-60	-88.6
					CHANNELS 3  Xrotation Yrotation Zrotation
					JOINT left_foot_ee
					{
						OFFSET	-22.5	-16.5	-42.2
						CHANNELS 3  Xrotation Yrotation Zrotation
						End Site
						{
							OFFSET	1	0	0
						}
					}
				}
			}
		}
	}
	JOINT right_hip
	{
		OFFSET	82.8	-127.5	0.300001
		CHANNELS 3  Xrotation Yrotation Zrotation
		JOINT right_knee
		{
			OFFSET	28.2	-396.7	2.2
			CHANNELS 3  Xrotation Yrotation Zrotation
			JOINT right_ankle
			{
				OFFSET	11.7	-411.3	35.4
				CHANNELS 3  Xrotation Yrotation Zrotation
				JOINT right_toes
				{
					OFFSET	0	-60	-88.6
					CHANNELS 3  Xrotation Yrotation Zrotation
					JOINT right_foot_ee
					{
						OFFSET	22.5	-16.5	-42.2
						CHANNELS 3  Xrotation Yrotation Zrotation
						End Site
						{
							OFFSET	1	0	0
						}
					}
				}
			}
		}
	}
}
MOTION
Frames: 6
Frame Time: 0.02
3504.57922834 704.829 -1541.145088 -2.48620810825 72.6337665578 -1.23360605758 1.3297 0.376632 1.57288 1.33103 0.275795 1.59365 1.339 -0.0275018 1.6171 1.33542 0.2282 1.60116 -11.3662 18.8156 -5.40538 -12.1479 39.0921 0.34454 -0.0 0.0 -0.0 -2.3918 18.5877 -1.43479 -30.6946 -32.6788 59.6805 1.65057 -39.2678 0.588876 -20.5809 -1.16019 2.34788 -1.17676 9.40728 -3.66384 -0.0 0.0 -0.0 11.863 20.5013 -23.5834 -21.3992 19.2606 -57.8864 1.1215 29.0538 -0.29061 -17.2937 0.919151 -2.00282 -0.560783 -6.65841 0.878829 0.0 0.0 0.0 19.2185 1.7168 2.30415 -37.9879 -0.343748 5.71454 30.277 13.894 -3.95385 3.03013 -0.0 -0.0 -0.0 0.0 -0.0 8.38677 -20.3141 9.75352 -24.7769 -0.208437 -3.76699 32.1442 24.7346 4.77476 -32.8001 0.0 0.0 0.0 0.0 0.0 
3507.40973562 704.829 -1543.99991965 -2.19542286697 70.2456198029 -1.54027837081 1.3297 0.376632 1.57288 1.33103 0.275795 1.59365 1.339 -0.0275018 1.6171 1.33542 0.2282 1.60116 -11.3662 18.8156 -5.40538 -12.1479 39.0921 0.34454 -0.0 0.0 -0.0 -2.3918 18.5877 -1.43479 -30.6946 -32.6788 59.6805 1.65057 -39.2678 0.588876 -20.5809 -1.16019 2.34788 -1.17676 9.40728 -3.66384 -0.0 0.0 -0.0 11.863 20.5013 -23.5834 -21.3992 19.2606 -57.8864 1.1215 29.0538 -0.29061 -17.2937 0.919151 -2.00282 -0.560783 -6.65841 0.878829 0.0 0.0 0.0 19.2185 1.7168 2.30415 -37.9879 -0.343748 5.71454 30.277 13.894 -3.95385 3.03013 -0.0 -0.0 -0.0 0.0 -0.0 8.38677 -20.3141 9.75352 -24.7769 -0.208437 -3.76699 32.1442 24.7346 4.77476 -32.8001 0.0 0.0 0.0 0.0 0.0 
3508.63893477 704.829 -1545.16826202 -2.09321201282 69.2381366326 -1.64922442736 1.3297 0.376632 1.57288 1.33103 0.275795 1.59365 1.339 -0.0275018 1.6171 1.33542 0.2282 1.60116 -11.3662 18.8156 -5.40538 -12.1479 39.0921 0.34454 -0.0 0.0 -0.0 -2.3918 18.5877 -1.43479 -30.6946 -32.6788 59.6805 1.65057 -39.2678 0.588876 -20.5809 -1.16019 2.34788 -1.17676 9.40728 -3.66384 -0.0 0.0 -0.0 11.863 20.5013 -23.5834 -21.3992 19.2606 -57.8864 1.1215 29.0538 -0.29061 -17.2937 0.919151 -2.00282 -0.560783 -6.65841 0.878829 0.0 0.0 0.0 19.2185 1.7168 2.30415 -37.9879 -0.343748 5.71454 30.277 13.894 -3.95385 3.03013 -0.0 -0.0 -0.0 0.0 -0.0 8.38677 -20.3141 9.75352 -24.7769 -0.208437 -3.76699 32.1442 24.7346 4.77476 -32.8001 0.0 0.0 0.0 0.0 0.0 
3509.30330264 704.829 -1545.78288893 -2.04271278165 68.7004293834 -1.70332697175 1.3297 0.376632 1.57288 1.33103 0.275795 1.59365 1.339 -0.0275018 1.6171 1.33542 0.2282 1.60116 -11.3662 18.8156 -5.40538 -12.1479 39.0921 0.34454 -0.0 0.0 -0.0 -2.3918 18.5877 -1.43479 -30.6946 -32.6788 59.6805 1.65057 -39.2678 0.588876 -20.5809 -1.16019 2.34788 -1.17676 9.40728 -3.66384 -0.0 0.0 -0.0 11.863 20.5013 -23.5834 -21.3992 19.2606 -57.8864 1.1215 29.0538 -0.29061 -17.2937 0.919151 -2.00282 -0.560783 -6.65841 0.878829 0.0 0.0 0.0 19.2185 1.7168 2.30415 -37.9879 -0.343748 5.71454 30.277 13.894 -3.95385 3.03013 -0.0 -0.0 -0.0 0.0 -0.0 8.38677 -20.3141 9.75352 -24.7769 -0.208437 -3.76699 32.1442 24.7346 4.77476 -32.8001 0.0 0.0 0.0 0.0 0.0 
3494.52872168 718.311 -1550.53467629 -1.11936331636 68.1509531141 -3.61159297505 1.37798 0.69729 1.92547 1.37986 0.573379 1.96592 1.40009 0.197451 2.03826 1.39467 0.516815 1.98153 -17.8009 18.7404 -2.9719 -19.8227 37.5865 5.27306 -0.0 0.0 -0.0 -1.97416 17.8022 -0.934346 -34.4853 -32.0585 59.5693 1.27347 -32.244 0.368112 -21.2586 -1.21233 2.41728 -1.13799 8.3036 -3.90843 -0.0 0.0 -0.0 12.9355 22.0037 -25.9367 -17.3713 21.9065 -58.2341 1.31093 32.998 -0.388307 -17.2427 0.915569 -1.99736 -0.948344 -10.7961 1.58363 0.0 0.0 0.0 24.9368 0.177294 -0.0283706 -33.6229 -0.111661 5.08547 17.9239 13.9106 -2.48659 1.67643 -0.0 -0.0 -0.0 0.0 -0.0 8.96171 -23.4511 9.99096 -24.3761 -0.218084 -3.70623 33.0273 25.2246 4.89878 -31.2844 0.0 0.0 0.0 0.0 0.0 
3489.01085058 718.317 -1551.19169757 -3.35535586044 68.4529790498 -1.87050055426 1.50338 0.704814 2.11297 1.50569 0.568964 2.15351 1.52761 0.163142 2.22139 1.52109 0.51184 2.1678 -18.1524 18.6691 -3.01775 -20.227 37.4699 5.33669 -0.0 0.0 -0.0 -1.74944 18.205 -0.525253 -36.3615 -31.4702 60.4759 1.1384 -29.4189 0.298863 -21.9882 -1.26938 2.49131 -1.18469 8.84632 -3.96703 -0.0 0.0 -0.0 13.1762 22.4083 -26.461 -15.8426 23.1869 -58.1011 1.54252 37.3815 -0.521863 -17.5067 0.934163 -2.02559 -1.07196 -10.4051 2.54559 0.0 0.0 0.0 26.0069 -0.454535 -0.706565 -32.4965 -0.0596255 4.92049 13.59 13.7584 -1.9174 1.31738 -0.0 -0.0 -0.0 0.0 -0.0 10.0312 -25.0631 9.68723 -22.6338 -0.255065 -3.44143 33.314 24.7375 4.90606 -30.9153 0.0 0.0 0.0 0.0 0.0 
